Coordinates
version=1
nRows=5
nColumns=40
inDegrees=yes

Units are S.I. units (second, meters, Newtons, ...)
If the header above contains a line with 'inDegrees', this indicates whether rotational values are in degrees (yes) or radians (no).

endheader
time	pelvis_tilt	pelvis_list	pelvis_rotation	pelvis_tx	pelvis_ty	pelvis_tz	hip_flexion_r	hip_adduction_r	hip_rotation_r	knee_angle_r	knee_angle_r_beta	ankle_angle_r	subtalar_angle_r	mtp_angle_r	hip_flexion_l	hip_adduction_l	hip_rotation_l	knee_angle_l	knee_angle_l_beta	ankle_angle_l	subtalar_angle_l	mtp_angle_l	lumbar_extension	lumbar_bending	lumbar_rotation	arm_flex_r	arm_add_r	arm_rot_r	elbow_flex_r	pro_sup_r	wrist_flex_r	wrist_dev_r	arm_flex_l	arm_add_l	arm_rot_l	elbow_flex_l	pro_sup_l	wrist_flex_l	wrist_dev_l
      2.21000000	     13.19640737	     -5.32772358	     -1.99619625	     -0.28757917	      0.93472148	     -1.04519280	     49.30696145	      1.21510718	     -3.49354266	     22.70913850	      0.39634924	     -3.58691463	      0.00000000	      0.00000000	     20.18652716	     -6.94206209	    -13.02889981	     68.72381706	      1.19945688	     30.27125921	      0.00000000	      0.00000000	    -20.11865801	     -0.40894823	      0.83504909	     89.83622949	     -7.33931086	     43.28677085	     26.98570106	     85.57654218	      0.00000000	      0.00000000	     89.88229375	    -14.13943259	     45.94299362	     30.04142846	     85.13419686	      0.00000000	      0.00000000
      2.21500000	     13.18494539	     -5.17993884	     -1.92556336	     -0.28816233	      0.93377631	     -1.04520093	     49.34283557	      1.07023530	     -3.41135192	     22.74084615	      0.39690264	     -3.70535241	      0.00000000	      0.00000000	     20.34396086	     -6.81541038	    -13.04385394	     68.89756864	      1.20248942	     30.31659049	      0.00000000	      0.00000000	    -20.19399231	     -0.56633038	      0.67885404	     89.83808057	     -7.24341520	     43.10210900	     26.98313781	     85.55714037	      0.00000000	      0.00000000	     89.88462764	    -14.17773354	     45.69178937	     30.15415829	     85.17836964	      0.00000000	      0.00000000
      2.22000000	     13.23666988	     -5.13574882	     -1.84747769	     -0.28829866	      0.93297691	     -1.04521129	     49.26319980	      1.01228519	     -3.40180018	     22.68631161	      0.39595083	     -3.58848334	      0.00000000	      0.00000000	     20.40657196	     -6.80441179	    -13.02422496	     69.08157106	      1.20570087	     30.31705920	      0.00000000	      0.00000000	    -20.28793661	     -0.61315698	      0.57497375	     89.83848175	     -7.22389172	     42.96922714	     27.03078518	     85.64003319	      0.00000000	      0.00000000	     89.88582322	    -14.22211449	     45.71192320	     30.25028449	     85.09016015	      0.00000000	      0.00000000
      2.22500000	     13.12849517	     -5.09043258	     -1.74310423	     -0.28851283	      0.93179071	     -1.04526029	     49.39443258	      0.90388275	     -3.47686788	     22.77312906	      0.39746608	     -3.58142700	      0.00000000	      0.00000000	     20.69227420	     -6.80467091	    -12.98882706	     69.34804513	      1.21035172	     30.42856207	      0.00000000	      0.00000000	    -20.20162874	     -0.65845640	      0.47093916	     89.83831068	     -7.22870672	     42.93136054	     27.00676362	     85.49300990	      0.00000000	      0.00000000	     89.88682416	    -14.21559450	     45.67266108	     30.30243167	     85.18115642	      0.00000000	      0.00000000
      2.23000000	     13.08549050	     -5.06156851	     -1.67749042	     -0.28870793	      0.93078659	     -1.04507524	     49.44088905	      0.86280871	     -3.48953044	     22.78324517	      0.39764264	     -3.57792364	      0.00000000	      0.00000000	     20.88403332	     -6.88991004	    -13.04842535	     69.59997746	      1.21474877	     30.41922870	      0.00000000	      0.00000000	    -20.20046851	     -0.71390535	      0.36654098	     89.83850609	     -7.18538458	     42.79443594	     27.05433656	     85.59324826	      0.00000000	      0.00000000	     89.88766613	    -14.22994758	     45.63143794	     30.32849351	     85.11533748	      0.00000000	      0.00000000
